<?xml version="1.0" encoding="UTF-8" standalone="no"?>
<svg
   xmlns:dc="http://purl.org/dc/elements/1.1/"
   xmlns:cc="http://creativecommons.org/ns#"
   xmlns:rdf="http://www.w3.org/1999/02/22-rdf-syntax-ns#"
   xmlns:svg="http://www.w3.org/2000/svg"
   xmlns="http://www.w3.org/2000/svg"
   xmlns:sodipodi="http://sodipodi.sourceforge.net/DTD/sodipodi-0.dtd"
   xmlns:inkscape="http://www.inkscape.org/namespaces/inkscape"
   sodipodi:docname="icons.svg"
   inkscape:version="1.0 (4035a4fb49, 2020-05-01)"
   id="svg8"
   version="1.1"
   viewBox="0 0 210 297"
   height="297mm"
   width="210mm">
  <defs
     id="defs2" />
  <sodipodi:namedview
     inkscape:window-maximized="1"
     inkscape:window-y="-8"
     inkscape:window-x="-8"
     inkscape:window-height="1017"
     inkscape:window-width="1920"
     inkscape:snap-global="false"
     showgrid="false"
     inkscape:document-rotation="0"
     inkscape:current-layer="layer1"
     inkscape:document-units="mm"
     inkscape:cy="63.58857"
     inkscape:cx="74.715761"
     inkscape:zoom="11.2"
     inkscape:pageshadow="2"
     inkscape:pageopacity="0.0"
     borderopacity="1.0"
     bordercolor="#666666"
     pagecolor="#ffffff"
     id="base" />
  <metadata
     id="metadata5">
    <rdf:RDF>
      <cc:Work
         rdf:about="">
        <dc:format>image/svg+xml</dc:format>
        <dc:type
           rdf:resource="http://purl.org/dc/dcmitype/StillImage" />
        <dc:title></dc:title>
      </cc:Work>
    </rdf:RDF>
  </metadata>
  <g
     id="layer1"
     inkscape:groupmode="layer"
     inkscape:label="Capa 1">
    <path
       id="path855"
       d="m 10.184408,11.752446 v -0.980125 l 2.538271,0.0754 0.351839,0.653416 5.001148,0.02513 c 0,0 0.175919,0.07539 0.175919,0.251313 0,0.17592 -0.02513,0.703679 -0.02513,0.703679 l -5.503775,0.02513 -0.578022,-0.90473 z"
       style="fill:#ffe680;stroke:none;stroke-width:0.140736px;stroke-linecap:butt;stroke-linejoin:miter;stroke-opacity:1" />
    <path
       id="path853"
       d="m 10.083882,11.852971 0.125657,4.649308 c 0,0 0.326709,0.201051 0.502628,0.201051 0.17592,0 7.338367,-0.07539 7.338367,-0.07539 0,0 0.17592,-0.100525 0.226183,-0.226182 0.05027,-0.125657 -0.05026,-3.769709 -0.05026,-3.769709 0,0 -0.07539,-0.276446 -0.301577,-0.201052 -0.226183,0.0754 -5.151936,0.05026 -5.151936,0.05026 l -0.578023,-0.829339 c 0,0 -1.884855,-0.125657 -2.111037,0.201051 z"
       style="fill:#ffd42a;stroke:none;stroke-width:0.140736px;stroke-linecap:butt;stroke-linejoin:miter;stroke-opacity:1" />
    <circle
       style="opacity:1;fill:#0094ff;fill-opacity:1;fill-rule:evenodd;stroke-width:0.205891"
       id="circle849"
       cx="14.431614"
       cy="14.994396"
       r="1.9853803" />
    <circle
       r="1.457621"
       cy="14.994396"
       cx="14.431614"
       id="path847"
       style="opacity:1;fill:#91ecff;fill-opacity:1;fill-rule:evenodd;stroke-width:0.151161" />
    <path
       id="path851"
       d="m 15.436869,16.552542 0.728811,-0.678547 1.482753,1.533015 c 0,0 0.07539,0.452364 -0.276447,0.452364 -0.351839,0 -0.628284,0 -0.628284,0 z"
       style="opacity:1;fill:#00b3ff;fill-opacity:1;stroke:none;stroke-width:0.140736px;stroke-linecap:butt;stroke-linejoin:miter;stroke-opacity:1" />
  </g>
</svg>
